<svg width="10" height="10" viewBox="0 0 10 10" fill="none" xmlns="http://www.w3.org/2000/svg">
<path fill-rule="evenodd" clip-rule="evenodd" d="M7.92495 1.52604V8.5C7.92495 8.73472 7.73467 8.925 7.49995 8.925C7.26523 8.925 7.07495 8.73472 7.07495 8.5V1.52604L5.80047 2.80052C5.6345 2.96649 5.3654 2.96649 5.19943 2.80052C5.03346 2.63454 5.03346 2.36545 5.19943 2.19948L7.19943 0.199477C7.3654 0.0335035 7.6345 0.0335035 7.80047 0.199477L9.80047 2.19948C9.96644 2.36545 9.96644 2.63454 9.80047 2.80052C9.6345 2.96649 9.3654 2.96649 9.19943 2.80052L7.92495 1.52604ZM2.92495 1.5C2.92495 1.26528 2.73467 1.075 2.49995 1.075C2.26523 1.075 2.07495 1.26528 2.07495 1.5V8.47396L0.800472 7.19948C0.634499 7.0335 0.365404 7.0335 0.199431 7.19948C0.033458 7.36545 0.033458 7.63454 0.199431 7.80052L2.19943 9.80052C2.3654 9.96649 2.6345 9.96649 2.80047 9.80052L4.80047 7.80052C4.96644 7.63454 4.96644 7.36545 4.80047 7.19948C4.6345 7.0335 4.3654 7.0335 4.19943 7.19948L2.92495 8.47396V1.5Z" fill="#7C8DB5"/>
</svg>
